<?xml version="1.0" encoding="UTF-8" standalone="no"?>
<!DOCTYPE svg PUBLIC "-//W3C//DTD SVG 1.1//EN"
 "http://www.w3.org/Graphics/SVG/1.1/DTD/svg11.dtd">
<!-- Generated by graphviz version 2.44.0 (20200518.1210)
 -->
<!-- Title: EntityRelation Pages: 1 -->
<svg width="3440pt" height="634pt"
 viewBox="0.00 0.00 3440.47 634.40" xmlns="http://www.w3.org/2000/svg" xmlns:xlink="http://www.w3.org/1999/xlink">
<g id="graph0" class="graph" transform="scale(1 1) rotate(0) translate(4 630.4)">
<title>EntityRelation</title>
<polygon fill="white" stroke="transparent" points="-4,4 -4,-630.4 3436.47,-630.4 3436.47,4 -4,4"/>
<!-- polity -->
<g id="node1" class="node">
<title>polity</title>
<polygon fill="none" stroke="red" points="934.43,-429.6 880.43,-429.6 880.43,-393.6 934.43,-393.6 934.43,-429.6"/>
<text text-anchor="middle" x="907.43" y="-407.4" font-family="Times,serif" font-size="14.00">polity</text>
</g>
<!-- timespan -->
<g id="node6" class="node">
<title>timespan</title>
<polygon fill="none" stroke="cyan" points="715.48,-626.4 649.39,-626.4 649.39,-590.4 715.48,-590.4 715.48,-626.4"/>
<text text-anchor="middle" x="682.43" y="-604.2" font-family="Times,serif" font-size="14.00">timespan</text>
</g>
<!-- polity&#45;&gt;timespan -->
<g id="edge4" class="edge">
<title>polity&#45;&gt;timespan</title>
<path fill="none" stroke="red" d="M910.62,-429.89C913.79,-452.56 915.74,-492.48 896.43,-518.4 855.82,-572.93 775.58,-594.25 725.73,-602.44"/>
<polygon fill="red" stroke="red" points="724.93,-599.02 715.57,-604 725.99,-605.94 724.93,-599.02"/>
<text text-anchor="middle" x="913.38" y="-505.8" font-family="Times,serif" font-size="14.00">out</text>
</g>
<!-- polity&#45;&gt;timespan -->
<g id="edge41" class="edge">
<title>polity&#45;&gt;timespan</title>
<path fill="none" stroke="cyan" d="M904.06,-429.66C898.78,-452.43 886.56,-492.86 862.43,-518.4 824.81,-558.23 765.53,-582.7 725.37,-595.66"/>
<polygon fill="cyan" stroke="cyan" points="724.1,-592.39 715.6,-598.71 726.19,-599.07 724.1,-592.39"/>
<text text-anchor="middle" x="878.88" y="-505.8" font-family="Times,serif" font-size="14.00">in</text>
</g>
<!-- polity2source -->
<g id="node2" class="node">
<title>polity2source</title>
<polygon fill="none" stroke="green" points="1047.64,-232.8 955.23,-232.8 955.23,-196.8 1047.64,-196.8 1047.64,-232.8"/>
<text text-anchor="middle" x="1001.43" y="-210.6" font-family="Times,serif" font-size="14.00">polity2source</text>
</g>
<!-- polity2source&#45;&gt;polity -->
<g id="edge1" class="edge">
<title>polity2source&#45;&gt;polity</title>
<path fill="none" stroke="red" d="M993.09,-233.09C976.61,-267.24 939.79,-343.55 920.22,-384.1"/>
<polygon fill="red" stroke="red" points="916.95,-382.82 915.76,-393.35 923.25,-385.87 916.95,-382.82"/>
<text text-anchor="middle" x="961.88" y="-309" font-family="Times,serif" font-size="14.00">in</text>
</g>
<!-- polity2source&#45;&gt;polity -->
<g id="edge5" class="edge">
<title>polity2source&#45;&gt;polity</title>
<path fill="none" stroke="green" d="M998.48,-232.95C994.35,-254.43 985.71,-292.03 971.43,-321.6 960.2,-344.87 942.88,-368.49 929.08,-385.55"/>
<polygon fill="green" stroke="green" points="926.3,-383.42 922.64,-393.36 931.7,-387.87 926.3,-383.42"/>
<text text-anchor="middle" x="987.38" y="-309" font-family="Times,serif" font-size="14.00">out</text>
</g>
<!-- source -->
<g id="node3" class="node">
<title>source</title>
<polygon fill="none" stroke="blue" points="2239.43,-429.6 2185.43,-429.6 2185.43,-393.6 2239.43,-393.6 2239.43,-429.6"/>
<text text-anchor="middle" x="2212.43" y="-407.4" font-family="Times,serif" font-size="14.00">source</text>
</g>
<!-- polity2source&#45;&gt;source -->
<g id="edge6" class="edge">
<title>polity2source&#45;&gt;source</title>
<path fill="none" stroke="green" d="M1047.83,-230.34C1126,-254.87 1276.06,-302.08 1281.43,-304.8 1292.77,-310.53 1292.67,-317.09 1304.54,-321.6 1387.03,-352.95 2014.05,-397.17 2174.92,-408.09"/>
<polygon fill="green" stroke="green" points="2175.04,-411.61 2185.25,-408.79 2175.51,-404.62 2175.04,-411.61"/>
<text text-anchor="middle" x="1313.38" y="-309" font-family="Times,serif" font-size="14.00">out</text>
</g>
<!-- polity2source&#45;&gt;source -->
<g id="edge8" class="edge">
<title>polity2source&#45;&gt;source</title>
<path fill="none" stroke="blue" d="M1047.61,-230.2C1050.59,-231.09 1053.55,-231.97 1056.43,-232.8 1174.07,-266.89 1213.14,-249.52 1322.43,-304.8 1333.13,-310.21 1332.44,-317.07 1343.54,-321.6 1421.52,-353.39 2018.44,-397.03 2174.96,-408.01"/>
<polygon fill="blue" stroke="blue" points="2174.82,-411.51 2185.04,-408.72 2175.31,-404.53 2174.82,-411.51"/>
<text text-anchor="middle" x="1348.88" y="-309" font-family="Times,serif" font-size="14.00">in</text>
</g>
<!-- politylabel -->
<g id="node4" class="node">
<title>politylabel</title>
<polygon fill="none" stroke="orange" points="937.32,-232.8 861.55,-232.8 861.55,-196.8 937.32,-196.8 937.32,-232.8"/>
<text text-anchor="middle" x="899.43" y="-210.6" font-family="Times,serif" font-size="14.00">politylabel</text>
</g>
<!-- politylabel&#45;&gt;polity -->
<g id="edge2" class="edge">
<title>politylabel&#45;&gt;polity</title>
<path fill="none" stroke="red" d="M900.14,-233.09C901.54,-267.02 904.64,-342.58 906.31,-383.32"/>
<polygon fill="red" stroke="red" points="902.82,-383.5 906.73,-393.35 909.81,-383.22 902.82,-383.5"/>
<text text-anchor="middle" x="908.88" y="-309" font-family="Times,serif" font-size="14.00">in</text>
</g>
<!-- politylabel&#45;&gt;polity -->
<g id="edge27" class="edge">
<title>politylabel&#45;&gt;polity</title>
<path fill="none" stroke="orange" d="M862.88,-232.85C828,-251.75 783.15,-284.49 800.54,-321.6 815.05,-352.56 846.22,-376.5 871.17,-391.72"/>
<polygon fill="orange" stroke="orange" points="869.65,-394.88 880.04,-396.92 873.19,-388.84 869.65,-394.88"/>
<text text-anchor="middle" x="809.38" y="-309" font-family="Times,serif" font-size="14.00">out</text>
</g>
<!-- label -->
<g id="node5" class="node">
<title>label</title>
<polygon fill="none" stroke="purple" points="1228.43,-429.6 1174.43,-429.6 1174.43,-393.6 1228.43,-393.6 1228.43,-429.6"/>
<text text-anchor="middle" x="1201.43" y="-407.4" font-family="Times,serif" font-size="14.00">label</text>
</g>
<!-- politylabel&#45;&gt;label -->
<g id="edge28" class="edge">
<title>politylabel&#45;&gt;label</title>
<path fill="none" stroke="orange" d="M925.97,-232.92C980.57,-268.14 1105.48,-348.7 1166.54,-388.09"/>
<polygon fill="orange" stroke="orange" points="1164.76,-391.11 1175.07,-393.59 1168.56,-385.23 1164.76,-391.11"/>
<text text-anchor="middle" x="1068.38" y="-309" font-family="Times,serif" font-size="14.00">out</text>
</g>
<!-- politylabel&#45;&gt;label -->
<g id="edge30" class="edge">
<title>politylabel&#45;&gt;label</title>
<path fill="none" stroke="purple" d="M937.63,-230.93C975.61,-246.77 1034.78,-273.65 1081.43,-304.8 1117.54,-328.91 1154.3,-363.03 1177.45,-385.94"/>
<polygon fill="purple" stroke="purple" points="1175.21,-388.65 1184.76,-393.25 1180.16,-383.7 1175.21,-388.65"/>
<text text-anchor="middle" x="1107.88" y="-309" font-family="Times,serif" font-size="14.00">in</text>
</g>
<!-- politylabel&#45;&gt;timespan -->
<g id="edge29" class="edge">
<title>politylabel&#45;&gt;timespan</title>
<path fill="none" stroke="orange" d="M921.48,-232.89C940.56,-249.11 966.98,-275.33 979.43,-304.8 1016.4,-392.27 1041.73,-442.67 984.43,-518.4 953.05,-559.87 801.45,-588.87 725.7,-601.02"/>
<polygon fill="orange" stroke="orange" points="724.87,-597.61 715.53,-602.62 725.96,-604.52 724.87,-597.61"/>
<text text-anchor="middle" x="1026.38" y="-407.4" font-family="Times,serif" font-size="14.00">out</text>
</g>
<!-- politylabel&#45;&gt;timespan -->
<g id="edge42" class="edge">
<title>politylabel&#45;&gt;timespan</title>
<path fill="none" stroke="cyan" d="M913.99,-232.81C927.48,-249.76 946.59,-277.19 954.43,-304.8 980.6,-396.9 988.49,-445.49 926.43,-518.4 875.64,-578.08 781.35,-597.75 726.04,-604.22"/>
<polygon fill="cyan" stroke="cyan" points="725.42,-600.77 715.85,-605.32 726.17,-607.73 725.42,-600.77"/>
<text text-anchor="middle" x="978.88" y="-407.4" font-family="Times,serif" font-size="14.00">in</text>
</g>
<!-- reign -->
<g id="node7" class="node">
<title>reign</title>
<polygon fill="none" stroke="magenta" points="426.43,-232.8 372.43,-232.8 372.43,-196.8 426.43,-196.8 426.43,-232.8"/>
<text text-anchor="middle" x="399.43" y="-210.6" font-family="Times,serif" font-size="14.00">reign</text>
</g>
<!-- reign&#45;&gt;polity -->
<g id="edge3" class="edge">
<title>reign&#45;&gt;polity</title>
<path fill="none" stroke="red" d="M398.69,-232.95C398.69,-256.6 402.49,-298.87 427.54,-321.6 573.93,-454.43 676.34,-339.39 866.43,-393.6 867.87,-394.01 869.32,-394.45 870.78,-394.93"/>
<polygon fill="red" stroke="red" points="869.8,-398.29 880.4,-398.37 872.16,-391.7 869.8,-398.29"/>
<text text-anchor="middle" x="433.88" y="-309" font-family="Times,serif" font-size="14.00">in</text>
</g>
<!-- reign&#45;&gt;polity -->
<g id="edge57" class="edge">
<title>reign&#45;&gt;polity</title>
<path fill="none" stroke="magenta" d="M415.6,-233.03C438.88,-256.77 484.3,-299.16 531.54,-321.6 669.05,-386.93 721.1,-348.26 866.43,-393.6 867.86,-394.04 869.3,-394.52 870.76,-395.02"/>
<polygon fill="magenta" stroke="magenta" points="869.75,-398.38 880.34,-398.56 872.17,-391.81 869.75,-398.38"/>
<text text-anchor="middle" x="540.38" y="-309" font-family="Times,serif" font-size="14.00">out</text>
</g>
<!-- reign&#45;&gt;timespan -->
<g id="edge46" class="edge">
<title>reign&#45;&gt;timespan</title>
<path fill="none" stroke="cyan" d="M372.29,-217.61C322.65,-222.46 217.45,-240.23 164.43,-304.8 103.68,-378.8 116.23,-460.44 192.43,-518.4 262.7,-571.84 532.63,-596.65 639,-604.51"/>
<polygon fill="cyan" stroke="cyan" points="638.84,-608 649.06,-605.24 639.34,-601.02 638.84,-608"/>
<text text-anchor="middle" x="134.88" y="-407.4" font-family="Times,serif" font-size="14.00">in</text>
</g>
<!-- reign&#45;&gt;timespan -->
<g id="edge56" class="edge">
<title>reign&#45;&gt;timespan</title>
<path fill="none" stroke="magenta" d="M380.81,-232.94C343.81,-269.15 267.36,-356.19 300.54,-429.6 359.59,-560.24 552.14,-595.06 639.1,-604.21"/>
<polygon fill="magenta" stroke="magenta" points="638.88,-607.7 649.17,-605.2 639.56,-600.74 638.88,-607.7"/>
<text text-anchor="middle" x="310.38" y="-407.4" font-family="Times,serif" font-size="14.00">out</text>
</g>
<!-- ruler -->
<g id="node9" class="node">
<title>ruler</title>
<polygon fill="none" stroke="lime" points="1625.43,-429.6 1571.43,-429.6 1571.43,-393.6 1625.43,-393.6 1625.43,-429.6"/>
<text text-anchor="middle" x="1598.43" y="-407.4" font-family="Times,serif" font-size="14.00">ruler</text>
</g>
<!-- reign&#45;&gt;ruler -->
<g id="edge58" class="edge">
<title>reign&#45;&gt;ruler</title>
<path fill="none" stroke="magenta" d="M426.56,-230.66C457.05,-247.64 507.74,-276.72 549.43,-304.8 559.67,-311.69 560.03,-317.16 571.54,-321.6 665.47,-357.83 1387.78,-399.14 1561.13,-408.6"/>
<polygon fill="magenta" stroke="magenta" points="1561.11,-412.1 1571.28,-409.15 1561.49,-405.11 1561.11,-412.1"/>
<text text-anchor="middle" x="580.38" y="-309" font-family="Times,serif" font-size="14.00">out</text>
</g>
<!-- reign&#45;&gt;ruler -->
<g id="edge65" class="edge">
<title>reign&#45;&gt;ruler</title>
<path fill="none" stroke="lime" d="M426.65,-220.71C447.17,-224.32 476.02,-229.2 501.43,-232.8 774.35,-271.47 848.62,-243.84 1117.43,-304.8 1139.93,-309.9 1144.29,-315.53 1166.54,-321.6 1310.79,-360.97 1486.33,-392.07 1561.45,-404.6"/>
<polygon fill="lime" stroke="lime" points="1560.93,-408.07 1571.37,-406.25 1562.07,-401.16 1560.93,-408.07"/>
<text text-anchor="middle" x="1171.88" y="-309" font-family="Times,serif" font-size="14.00">in</text>
</g>
<!-- rulership -->
<g id="node10" class="node">
<title>rulership</title>
<polygon fill="none" stroke="pink" points="235.2,-429.6 169.67,-429.6 169.67,-393.6 235.2,-393.6 235.2,-429.6"/>
<text text-anchor="middle" x="202.43" y="-407.4" font-family="Times,serif" font-size="14.00">rulership</text>
</g>
<!-- reign&#45;&gt;rulership -->
<g id="edge59" class="edge">
<title>reign&#45;&gt;rulership</title>
<path fill="none" stroke="magenta" d="M372.37,-224.61C337.74,-237.18 278,-263.43 242.54,-304.8 223.14,-327.44 212.65,-360.41 207.32,-383.52"/>
<polygon fill="magenta" stroke="magenta" points="203.88,-382.86 205.22,-393.37 210.73,-384.32 203.88,-382.86"/>
<text text-anchor="middle" x="252.38" y="-309" font-family="Times,serif" font-size="14.00">out</text>
</g>
<!-- reign&#45;&gt;rulership -->
<g id="edge69" class="edge">
<title>reign&#45;&gt;rulership</title>
<path fill="none" stroke="pink" d="M372.41,-217.24C323.16,-221.49 219.75,-238.3 174.54,-304.8 158.21,-328.83 171.35,-361.9 184.57,-384.64"/>
<polygon fill="pink" stroke="pink" points="181.74,-386.72 189.96,-393.4 187.7,-383.05 181.74,-386.72"/>
<text text-anchor="middle" x="180.88" y="-309" font-family="Times,serif" font-size="14.00">in</text>
</g>
<!-- reign2source -->
<g id="node8" class="node">
<title>reign2source</title>
<polygon fill="none" stroke="yellow" points="2184.73,-36 2096.13,-36 2096.13,0 2184.73,0 2184.73,-36"/>
<text text-anchor="middle" x="2140.43" y="-13.8" font-family="Times,serif" font-size="14.00">reign2source</text>
</g>
<!-- reign2source&#45;&gt;source -->
<g id="edge15" class="edge">
<title>reign2source&#45;&gt;source</title>
<path fill="none" stroke="blue" d="M2184.6,-26.38C2304.71,-47.44 2632.46,-111.82 2694.43,-196.8 2811.81,-357.75 2381.37,-399.56 2249.63,-408.48"/>
<polygon fill="blue" stroke="blue" points="2249.35,-404.99 2239.6,-409.13 2249.8,-411.97 2249.35,-404.99"/>
<text text-anchor="middle" x="2716.88" y="-210.6" font-family="Times,serif" font-size="14.00">in</text>
</g>
<!-- reign2source&#45;&gt;source -->
<g id="edge61" class="edge">
<title>reign2source&#45;&gt;source</title>
<path fill="none" stroke="yellow" d="M2184.91,-24.84C2311.75,-42.58 2669.8,-100.6 2726.43,-196.8 2833.37,-378.45 2385.05,-405.77 2249.94,-409.87"/>
<polygon fill="yellow" stroke="yellow" points="2249.57,-406.38 2239.67,-410.16 2249.76,-413.38 2249.57,-406.38"/>
<text text-anchor="middle" x="2749.38" y="-210.6" font-family="Times,serif" font-size="14.00">out</text>
</g>
<!-- reign2source&#45;&gt;reign -->
<g id="edge55" class="edge">
<title>reign2source&#45;&gt;reign</title>
<path fill="none" stroke="magenta" d="M2095.99,-22.88C1904.66,-39.79 1132.34,-110.08 501.43,-196.8 479.87,-199.76 455.86,-203.73 436.56,-207.09"/>
<polygon fill="magenta" stroke="magenta" points="435.89,-203.65 426.64,-208.83 437.1,-210.55 435.89,-203.65"/>
<text text-anchor="middle" x="1224.88" y="-112.2" font-family="Times,serif" font-size="14.00">in</text>
</g>
<!-- reign2source&#45;&gt;reign -->
<g id="edge60" class="edge">
<title>reign2source&#45;&gt;reign</title>
<path fill="none" stroke="yellow" d="M2096.16,-24.46C1964.82,-40.6 1565.87,-89.17 1234.43,-124.8 908.96,-159.79 825.95,-153.87 501.43,-196.8 479.86,-199.65 455.85,-203.62 436.54,-207"/>
<polygon fill="yellow" stroke="yellow" points="435.87,-203.56 426.63,-208.76 437.09,-210.46 435.87,-203.56"/>
<text text-anchor="middle" x="1391.38" y="-112.2" font-family="Times,serif" font-size="14.00">out</text>
</g>
<!-- lifespan -->
<g id="node38" class="node">
<title>lifespan</title>
<polygon fill="none" stroke="black" points="1900.75,-626.4 1840.12,-626.4 1840.12,-590.4 1900.75,-590.4 1900.75,-626.4"/>
<text text-anchor="middle" x="1870.43" y="-604.2" font-family="Times,serif" font-size="14.00">lifespan</text>
</g>
<!-- ruler&#45;&gt;lifespan -->
<g id="edge66" class="edge">
<title>ruler&#45;&gt;lifespan</title>
<path fill="none" stroke="lime" d="M1622.57,-429.89C1671.57,-464.98 1782.71,-544.58 1837.98,-584.16"/>
<polygon fill="lime" stroke="lime" points="1836.18,-587.17 1846.35,-590.15 1840.26,-581.48 1836.18,-587.17"/>
<text text-anchor="middle" x="1751.38" y="-505.8" font-family="Times,serif" font-size="14.00">out</text>
</g>
<!-- rulership&#45;&gt;timespan -->
<g id="edge43" class="edge">
<title>rulership&#45;&gt;timespan</title>
<path fill="none" stroke="cyan" d="M196.99,-429.94C190.93,-453.04 184.51,-493.83 205.54,-518.4 261.52,-583.81 532.23,-601.51 639.01,-605.98"/>
<polygon fill="cyan" stroke="cyan" points="638.98,-609.49 649.11,-606.39 639.26,-602.49 638.98,-609.49"/>
<text text-anchor="middle" x="211.88" y="-505.8" font-family="Times,serif" font-size="14.00">in</text>
</g>
<!-- rulership&#45;&gt;timespan -->
<g id="edge70" class="edge">
<title>rulership&#45;&gt;timespan</title>
<path fill="none" stroke="pink" d="M203.39,-429.75C205.67,-453.39 213.4,-495.66 239.54,-518.4 299.27,-570.35 540.17,-595.71 639.39,-604.11"/>
<polygon fill="pink" stroke="pink" points="639.13,-607.6 649.38,-604.94 639.71,-600.63 639.13,-607.6"/>
<text text-anchor="middle" x="249.38" y="-505.8" font-family="Times,serif" font-size="14.00">out</text>
</g>
<!-- rulership_type -->
<g id="node39" class="node">
<title>rulership_type</title>
<polygon fill="none" stroke="black" points="96.8,-626.4 0.07,-626.4 0.07,-590.4 96.8,-590.4 96.8,-626.4"/>
<text text-anchor="middle" x="48.43" y="-604.2" font-family="Times,serif" font-size="14.00">rulership_type</text>
</g>
<!-- rulership&#45;&gt;rulership_type -->
<g id="edge71" class="edge">
<title>rulership&#45;&gt;rulership_type</title>
<path fill="none" stroke="pink" d="M188.77,-429.89C161.48,-464.4 100.16,-541.97 68.38,-582.17"/>
<polygon fill="pink" stroke="pink" points="65.53,-580.14 62.07,-590.15 71.02,-584.48 65.53,-580.14"/>
<text text-anchor="middle" x="139.38" y="-505.8" font-family="Times,serif" font-size="14.00">out</text>
</g>
<!-- timespan2source -->
<g id="node11" class="node">
<title>timespan2source</title>
<polygon fill="none" stroke="black" points="3432.51,-232.8 3322.35,-232.8 3322.35,-196.8 3432.51,-196.8 3432.51,-232.8"/>
<text text-anchor="middle" x="3377.43" y="-210.6" font-family="Times,serif" font-size="14.00">timespan2source</text>
</g>
<!-- timespan2source&#45;&gt;source -->
<g id="edge7" class="edge">
<title>timespan2source&#45;&gt;source</title>
<path fill="none" stroke="blue" d="M3326.7,-232.81C3254.73,-256.29 3118.49,-298.36 2999.43,-321.6 2714.1,-377.29 2363.26,-401.7 2249.75,-408.51"/>
<polygon fill="blue" stroke="blue" points="2249.29,-405.03 2239.51,-409.12 2249.7,-412.02 2249.29,-405.03"/>
<text text-anchor="middle" x="3077.88" y="-309" font-family="Times,serif" font-size="14.00">in</text>
</g>
<!-- timespan2source&#45;&gt;timespan -->
<g id="edge40" class="edge">
<title>timespan2source&#45;&gt;timespan</title>
<path fill="none" stroke="cyan" d="M3338.36,-232.94C3283.39,-256.37 3179.63,-298.18 3087.43,-321.6 2153.8,-558.75 965.15,-600.33 725.61,-606.45"/>
<polygon fill="cyan" stroke="cyan" points="725.47,-602.95 715.56,-606.7 725.64,-609.95 725.47,-602.95"/>
<text text-anchor="middle" x="2771.88" y="-407.4" font-family="Times,serif" font-size="14.00">in</text>
</g>
<!-- politylabel2source -->
<g id="node12" class="node">
<title>politylabel2source</title>
<polygon fill="none" stroke="black" points="1837.35,-232.8 1717.52,-232.8 1717.52,-196.8 1837.35,-196.8 1837.35,-232.8"/>
<text text-anchor="middle" x="1777.43" y="-210.6" font-family="Times,serif" font-size="14.00">politylabel2source</text>
</g>
<!-- politylabel2source&#45;&gt;source -->
<g id="edge9" class="edge">
<title>politylabel2source&#45;&gt;source</title>
<path fill="none" stroke="blue" d="M1771.67,-233.03C1765.16,-256 1757.98,-296.66 1778.54,-321.6 1828.93,-382.72 2079.24,-403.11 2175.05,-408.74"/>
<polygon fill="blue" stroke="blue" points="2174.97,-412.24 2185.15,-409.31 2175.37,-405.25 2174.97,-412.24"/>
<text text-anchor="middle" x="1783.88" y="-309" font-family="Times,serif" font-size="14.00">in</text>
</g>
<!-- politylabel2source&#45;&gt;label -->
<g id="edge31" class="edge">
<title>politylabel2source&#45;&gt;label</title>
<path fill="none" stroke="purple" d="M1764.96,-233.13C1745.15,-260.16 1706.75,-310.45 1687.43,-321.6 1610.38,-366.08 1339.09,-396.91 1238.94,-407.01"/>
<polygon fill="purple" stroke="purple" points="1238.3,-403.56 1228.69,-408.03 1238.99,-410.52 1238.3,-403.56"/>
<text text-anchor="middle" x="1709.88" y="-309" font-family="Times,serif" font-size="14.00">in</text>
</g>
<!-- rulership2source -->
<g id="node13" class="node">
<title>rulership2source</title>
<polygon fill="none" stroke="black" points="843.23,-232.8 733.64,-232.8 733.64,-196.8 843.23,-196.8 843.23,-232.8"/>
<text text-anchor="middle" x="788.43" y="-210.6" font-family="Times,serif" font-size="14.00">rulership2source</text>
</g>
<!-- rulership2source&#45;&gt;source -->
<g id="edge10" class="edge">
<title>rulership2source&#45;&gt;source</title>
<path fill="none" stroke="blue" d="M843.18,-230.62C846.31,-231.38 849.41,-232.11 852.43,-232.8 1018.75,-270.72 1066.33,-254.84 1229.43,-304.8 1247.52,-310.34 1250.21,-316.92 1268.54,-321.6 1445.12,-366.66 2022.44,-400.36 2175.12,-408.64"/>
<polygon fill="blue" stroke="blue" points="2175.19,-412.14 2185.36,-409.19 2175.57,-405.15 2175.19,-412.14"/>
<text text-anchor="middle" x="1273.88" y="-309" font-family="Times,serif" font-size="14.00">in</text>
</g>
<!-- rulership2source&#45;&gt;rulership -->
<g id="edge67" class="edge">
<title>rulership2source&#45;&gt;rulership</title>
<path fill="none" stroke="pink" d="M762.78,-232.9C726.54,-256.29 657.61,-298.05 593.43,-321.6 446.79,-375.41 399.69,-350.93 249.43,-393.6 248,-394.01 246.54,-394.44 245.08,-394.88"/>
<polygon fill="pink" stroke="pink" points="243.8,-391.62 235.37,-398.03 245.96,-398.28 243.8,-391.62"/>
<text text-anchor="middle" x="637.88" y="-309" font-family="Times,serif" font-size="14.00">in</text>
</g>
<!-- rulershiplabel2source -->
<g id="node14" class="node">
<title>rulershiplabel2source</title>
<polygon fill="none" stroke="black" points="1571.44,-232.8 1435.43,-232.8 1435.43,-196.8 1571.44,-196.8 1571.44,-232.8"/>
<text text-anchor="middle" x="1503.43" y="-210.6" font-family="Times,serif" font-size="14.00">rulershiplabel2source</text>
</g>
<!-- rulershiplabel2source&#45;&gt;source -->
<g id="edge11" class="edge">
<title>rulershiplabel2source&#45;&gt;source</title>
<path fill="none" stroke="blue" d="M1525.39,-232.81C1562.29,-261.27 1634.04,-315.97 1647.54,-321.6 1834.62,-399.55 2082.53,-409.77 2175.3,-410.72"/>
<polygon fill="blue" stroke="blue" points="2175.3,-414.22 2185.33,-410.79 2175.35,-407.22 2175.3,-414.22"/>
<text text-anchor="middle" x="1652.88" y="-309" font-family="Times,serif" font-size="14.00">in</text>
</g>
<!-- rulershiplabel2source&#45;&gt;label -->
<g id="edge33" class="edge">
<title>rulershiplabel2source&#45;&gt;label</title>
<path fill="none" stroke="purple" d="M1500.96,-232.92C1496.72,-256.13 1485.92,-297.48 1460.43,-321.6 1397.82,-380.86 1293.98,-400.82 1238.72,-407.43"/>
<polygon fill="purple" stroke="purple" points="1238.21,-403.96 1228.66,-408.54 1238.99,-410.92 1238.21,-403.96"/>
<text text-anchor="middle" x="1478.88" y="-309" font-family="Times,serif" font-size="14.00">in</text>
</g>
<!-- rulergender2source -->
<g id="node15" class="node">
<title>rulergender2source</title>
<polygon fill="none" stroke="black" points="2171.48,-232.8 2047.38,-232.8 2047.38,-196.8 2171.48,-196.8 2171.48,-232.8"/>
<text text-anchor="middle" x="2109.43" y="-210.6" font-family="Times,serif" font-size="14.00">rulergender2source</text>
</g>
<!-- rulergender2source&#45;&gt;source -->
<g id="edge12" class="edge">
<title>rulergender2source&#45;&gt;source</title>
<path fill="none" stroke="blue" d="M2118.57,-233.09C2136.67,-267.31 2177.15,-343.87 2198.55,-384.35"/>
<polygon fill="blue" stroke="blue" points="2195.54,-386.15 2203.31,-393.35 2201.73,-382.88 2195.54,-386.15"/>
<text text-anchor="middle" x="2168.88" y="-309" font-family="Times,serif" font-size="14.00">in</text>
</g>
<!-- rulergender2source&#45;&gt;ruler -->
<g id="edge62" class="edge">
<title>rulergender2source&#45;&gt;ruler</title>
<path fill="none" stroke="lime" d="M2064.53,-232.92C1964.78,-270.94 1726.36,-361.83 1634.95,-396.68"/>
<polygon fill="lime" stroke="lime" points="1633.66,-393.43 1625.56,-400.26 1636.15,-399.97 1633.66,-393.43"/>
<text text-anchor="middle" x="1873.88" y="-309" font-family="Times,serif" font-size="14.00">in</text>
</g>
<!-- ruler2source -->
<g id="node16" class="node">
<title>ruler2source</title>
<polygon fill="none" stroke="black" points="2029.39,-232.8 1943.47,-232.8 1943.47,-196.8 2029.39,-196.8 2029.39,-232.8"/>
<text text-anchor="middle" x="1986.43" y="-210.6" font-family="Times,serif" font-size="14.00">ruler2source</text>
</g>
<!-- ruler2source&#45;&gt;source -->
<g id="edge13" class="edge">
<title>ruler2source&#45;&gt;source</title>
<path fill="none" stroke="blue" d="M2006.49,-233.09C2046.95,-267.96 2138.41,-346.79 2184.61,-386.62"/>
<polygon fill="blue" stroke="blue" points="2182.56,-389.47 2192.42,-393.35 2187.13,-384.17 2182.56,-389.47"/>
<text text-anchor="middle" x="2110.88" y="-309" font-family="Times,serif" font-size="14.00">in</text>
</g>
<!-- ruler2source&#45;&gt;ruler -->
<g id="edge63" class="edge">
<title>ruler2source&#45;&gt;ruler</title>
<path fill="none" stroke="lime" d="M1943.03,-230.16C1883.47,-250.14 1779.77,-285.98 1744.54,-304.8 1733.34,-310.78 1731.71,-314.14 1721.43,-321.6 1690.51,-344.03 1655.19,-369.58 1630.35,-387.54"/>
<polygon fill="lime" stroke="lime" points="1628.08,-384.86 1622.02,-393.55 1632.18,-390.53 1628.08,-384.86"/>
<text text-anchor="middle" x="1749.88" y="-309" font-family="Times,serif" font-size="14.00">in</text>
</g>
<!-- rulerlabel2source -->
<g id="node17" class="node">
<title>rulerlabel2source</title>
<polygon fill="none" stroke="black" points="1417.1,-232.8 1303.76,-232.8 1303.76,-196.8 1417.1,-196.8 1417.1,-232.8"/>
<text text-anchor="middle" x="1360.43" y="-210.6" font-family="Times,serif" font-size="14.00">rulerlabel2source</text>
</g>
<!-- rulerlabel2source&#45;&gt;source -->
<g id="edge14" class="edge">
<title>rulerlabel2source&#45;&gt;source</title>
<path fill="none" stroke="blue" d="M1416.63,-232.87C1463.47,-248.28 1531.07,-273.35 1585.43,-304.8 1595.81,-310.8 1595.54,-316.83 1606.54,-321.6 1710.24,-366.55 2059.61,-398.23 2175.06,-407.67"/>
<polygon fill="blue" stroke="blue" points="2174.92,-411.17 2185.17,-408.49 2175.49,-404.19 2174.92,-411.17"/>
<text text-anchor="middle" x="1611.88" y="-309" font-family="Times,serif" font-size="14.00">in</text>
</g>
<!-- rulerlabel2source&#45;&gt;label -->
<g id="edge35" class="edge">
<title>rulerlabel2source&#45;&gt;label</title>
<path fill="none" stroke="purple" d="M1364.56,-232.99C1368.88,-255.19 1372.98,-294.23 1356.43,-321.6 1330.46,-364.56 1275.41,-388.77 1238.41,-400.77"/>
<polygon fill="purple" stroke="purple" points="1237.01,-397.54 1228.49,-403.83 1239.08,-404.22 1237.01,-397.54"/>
<text text-anchor="middle" x="1367.88" y="-309" font-family="Times,serif" font-size="14.00">in</text>
</g>
<!-- succession -->
<g id="node18" class="node">
<title>succession</title>
<polygon fill="none" stroke="black" points="2880.3,-232.8 2804.57,-232.8 2804.57,-196.8 2880.3,-196.8 2880.3,-232.8"/>
<text text-anchor="middle" x="2842.43" y="-210.6" font-family="Times,serif" font-size="14.00">succession</text>
</g>
<!-- succession&#45;&gt;source -->
<g id="edge16" class="edge">
<title>succession&#45;&gt;source</title>
<path fill="none" stroke="blue" d="M2837.85,-232.92C2830.47,-256.94 2813.52,-300.11 2782.43,-321.6 2695.24,-381.88 2362.55,-403.32 2249.94,-408.94"/>
<polygon fill="blue" stroke="blue" points="2249.57,-405.45 2239.75,-409.44 2249.91,-412.45 2249.57,-405.45"/>
<text text-anchor="middle" x="2804.88" y="-309" font-family="Times,serif" font-size="14.00">in</text>
</g>
<!-- location2coordsource -->
<g id="node19" class="node">
<title>location2coordsource</title>
<polygon fill="none" stroke="black" points="3034.44,-232.8 2898.42,-232.8 2898.42,-196.8 3034.44,-196.8 3034.44,-232.8"/>
<text text-anchor="middle" x="2966.43" y="-210.6" font-family="Times,serif" font-size="14.00">location2coordsource</text>
</g>
<!-- location2coordsource&#45;&gt;source -->
<g id="edge17" class="edge">
<title>location2coordsource&#45;&gt;source</title>
<path fill="none" stroke="blue" d="M2947.97,-233C2920.93,-257.11 2867.93,-300.39 2814.43,-321.6 2612.56,-401.63 2346.77,-410.52 2249.84,-410.92"/>
<polygon fill="blue" stroke="blue" points="2249.66,-407.42 2239.67,-410.93 2249.67,-414.42 2249.66,-407.42"/>
<text text-anchor="middle" x="2850.88" y="-309" font-family="Times,serif" font-size="14.00">in</text>
</g>
<!-- location2source -->
<g id="node20" class="node">
<title>location2source</title>
<polygon fill="none" stroke="black" points="3157.57,-232.8 3053.3,-232.8 3053.3,-196.8 3157.57,-196.8 3157.57,-232.8"/>
<text text-anchor="middle" x="3105.43" y="-210.6" font-family="Times,serif" font-size="14.00">location2source</text>
</g>
<!-- location2source&#45;&gt;source -->
<g id="edge18" class="edge">
<title>location2source&#45;&gt;source</title>
<path fill="none" stroke="blue" d="M3073.57,-232.91C3027.78,-256.71 2940.09,-299.38 2860.43,-321.6 2634.06,-384.75 2350.19,-403.96 2249.74,-409.01"/>
<polygon fill="blue" stroke="blue" points="2249.32,-405.52 2239.5,-409.5 2249.66,-412.51 2249.32,-405.52"/>
<text text-anchor="middle" x="2913.88" y="-309" font-family="Times,serif" font-size="14.00">in</text>
</g>
<!-- locationtype2source -->
<g id="node21" class="node">
<title>locationtype2source</title>
<polygon fill="none" stroke="black" points="3304.67,-232.8 3176.19,-232.8 3176.19,-196.8 3304.67,-196.8 3304.67,-232.8"/>
<text text-anchor="middle" x="3240.43" y="-210.6" font-family="Times,serif" font-size="14.00">locationtype2source</text>
</g>
<!-- locationtype2source&#45;&gt;source -->
<g id="edge19" class="edge">
<title>locationtype2source&#45;&gt;source</title>
<path fill="none" stroke="blue" d="M3198.38,-232.81C3138.38,-256.39 3024.28,-298.7 2923.43,-321.6 2669.81,-379.2 2356.23,-402.08 2249.79,-408.53"/>
<polygon fill="blue" stroke="blue" points="2249.34,-405.05 2239.56,-409.14 2249.75,-412.04 2249.34,-405.05"/>
<text text-anchor="middle" x="2989.88" y="-309" font-family="Times,serif" font-size="14.00">in</text>
</g>
<!-- locationlabel2source -->
<g id="node22" class="node">
<title>locationlabel2source</title>
<polygon fill="none" stroke="black" points="1285.28,-232.8 1153.59,-232.8 1153.59,-196.8 1285.28,-196.8 1285.28,-232.8"/>
<text text-anchor="middle" x="1219.43" y="-210.6" font-family="Times,serif" font-size="14.00">locationlabel2source</text>
</g>
<!-- locationlabel2source&#45;&gt;source -->
<g id="edge20" class="edge">
<title>locationlabel2source&#45;&gt;source</title>
<path fill="none" stroke="blue" d="M1285.56,-232.65C1348.93,-249.28 1447,-276.3 1530.43,-304.8 1549.5,-311.31 1553.06,-316.44 1572.54,-321.6 1796.41,-380.89 2075.42,-402.44 2174.99,-408.55"/>
<polygon fill="blue" stroke="blue" points="2174.96,-412.06 2185.15,-409.16 2175.38,-405.07 2174.96,-412.06"/>
<text text-anchor="middle" x="1577.88" y="-309" font-family="Times,serif" font-size="14.00">in</text>
</g>
<!-- locationlabel2source&#45;&gt;label -->
<g id="edge37" class="edge">
<title>locationlabel2source&#45;&gt;label</title>
<path fill="none" stroke="purple" d="M1218.86,-233.06C1218.08,-254.03 1216.41,-290.47 1213.43,-321.6 1211.44,-342.42 1208.24,-365.86 1205.65,-383.46"/>
<polygon fill="purple" stroke="purple" points="1202.15,-383.17 1204.13,-393.58 1209.07,-384.21 1202.15,-383.17"/>
<text text-anchor="middle" x="1219.88" y="-309" font-family="Times,serif" font-size="14.00">in</text>
</g>
<!-- locationpartof2source -->
<g id="node23" class="node">
<title>locationpartof2source</title>
<polygon fill="none" stroke="black" points="2327.5,-232.8 2189.37,-232.8 2189.37,-196.8 2327.5,-196.8 2327.5,-232.8"/>
<text text-anchor="middle" x="2258.43" y="-210.6" font-family="Times,serif" font-size="14.00">locationpartof2source</text>
</g>
<!-- locationpartof2source&#45;&gt;source -->
<g id="edge21" class="edge">
<title>locationpartof2source&#45;&gt;source</title>
<path fill="none" stroke="blue" d="M2254.35,-233.09C2246.32,-267.09 2228.42,-342.9 2218.81,-383.58"/>
<polygon fill="blue" stroke="blue" points="2215.4,-382.81 2216.51,-393.35 2222.21,-384.42 2215.4,-382.81"/>
<text text-anchor="middle" x="2241.88" y="-309" font-family="Times,serif" font-size="14.00">in</text>
</g>
<!-- shiplabel2source -->
<g id="node24" class="node">
<title>shiplabel2source</title>
<polygon fill="none" stroke="black" points="1699.51,-232.8 1589.35,-232.8 1589.35,-196.8 1699.51,-196.8 1699.51,-232.8"/>
<text text-anchor="middle" x="1644.43" y="-210.6" font-family="Times,serif" font-size="14.00">shiplabel2source</text>
</g>
<!-- shiplabel2source&#45;&gt;source -->
<g id="edge22" class="edge">
<title>shiplabel2source&#45;&gt;source</title>
<path fill="none" stroke="blue" d="M1644.41,-233C1645.37,-256.72 1650.86,-299.06 1676.54,-321.6 1751.23,-387.15 2066.08,-405.09 2175.1,-409.38"/>
<polygon fill="blue" stroke="blue" points="2175.16,-412.89 2185.29,-409.77 2175.43,-405.89 2175.16,-412.89"/>
<text text-anchor="middle" x="1681.88" y="-309" font-family="Times,serif" font-size="14.00">in</text>
</g>
<!-- shiplabel2source&#45;&gt;label -->
<g id="edge39" class="edge">
<title>shiplabel2source&#45;&gt;label</title>
<path fill="none" stroke="purple" d="M1623.46,-233.02C1594.61,-255.99 1540.34,-296.64 1488.43,-321.6 1403.02,-362.68 1294.28,-390.28 1238.35,-402.84"/>
<polygon fill="purple" stroke="purple" points="1237.55,-399.43 1228.54,-405.01 1239.06,-406.27 1237.55,-399.43"/>
<text text-anchor="middle" x="1520.88" y="-309" font-family="Times,serif" font-size="14.00">in</text>
</g>
<!-- ship2type -->
<g id="node25" class="node">
<title>ship2type</title>
<polygon fill="none" stroke="black" points="1925.88,-232.8 1854.99,-232.8 1854.99,-196.8 1925.88,-196.8 1925.88,-232.8"/>
<text text-anchor="middle" x="1890.43" y="-210.6" font-family="Times,serif" font-size="14.00">ship2type</text>
</g>
<!-- ship2type&#45;&gt;source -->
<g id="edge23" class="edge">
<title>ship2type&#45;&gt;source</title>
<path fill="none" stroke="blue" d="M1918.73,-232.92C1977.35,-268.38 2112.01,-349.85 2176.6,-388.92"/>
<polygon fill="blue" stroke="blue" points="2174.86,-391.96 2185.23,-394.14 2178.49,-385.97 2174.86,-391.96"/>
<text text-anchor="middle" x="2065.88" y="-309" font-family="Times,serif" font-size="14.00">in</text>
</g>
<!-- ship2type&#45;&gt;timespan -->
<g id="edge52" class="edge">
<title>ship2type&#45;&gt;timespan</title>
<path fill="none" stroke="cyan" d="M1882.82,-232.98C1872.15,-255.53 1850.94,-295.31 1823.43,-321.6 1753.49,-388.44 1725.25,-396.25 1634.43,-429.6 1298.33,-553.01 862.65,-594.14 725.63,-604.48"/>
<polygon fill="cyan" stroke="cyan" points="725.25,-601 715.53,-605.22 725.76,-607.98 725.25,-601"/>
<text text-anchor="middle" x="1730.88" y="-407.4" font-family="Times,serif" font-size="14.00">in</text>
</g>
<!-- ship2source -->
<g id="node26" class="node">
<title>ship2source</title>
<polygon fill="none" stroke="black" points="2427.8,-232.8 2345.06,-232.8 2345.06,-196.8 2427.8,-196.8 2427.8,-232.8"/>
<text text-anchor="middle" x="2386.43" y="-210.6" font-family="Times,serif" font-size="14.00">ship2source</text>
</g>
<!-- ship2source&#45;&gt;source -->
<g id="edge24" class="edge">
<title>ship2source&#45;&gt;source</title>
<path fill="none" stroke="blue" d="M2370.99,-233.09C2340.04,-267.74 2270.3,-345.82 2234.52,-385.87"/>
<polygon fill="blue" stroke="blue" points="2231.89,-383.56 2227.84,-393.35 2237.11,-388.23 2231.89,-383.56"/>
<text text-anchor="middle" x="2309.88" y="-309" font-family="Times,serif" font-size="14.00">in</text>
</g>
<!-- event2source -->
<g id="node27" class="node">
<title>event2source</title>
<polygon fill="none" stroke="black" points="2535.29,-232.8 2445.58,-232.8 2445.58,-196.8 2535.29,-196.8 2535.29,-232.8"/>
<text text-anchor="middle" x="2490.43" y="-210.6" font-family="Times,serif" font-size="14.00">event2source</text>
</g>
<!-- event2source&#45;&gt;source -->
<g id="edge25" class="edge">
<title>event2source&#45;&gt;source</title>
<path fill="none" stroke="blue" d="M2465.76,-233.09C2415.58,-268.25 2301.62,-348.1 2245.26,-387.6"/>
<polygon fill="blue" stroke="blue" points="2243.23,-384.75 2237.05,-393.35 2247.25,-390.48 2243.23,-384.75"/>
<text text-anchor="middle" x="2364.88" y="-309" font-family="Times,serif" font-size="14.00">in</text>
</g>
<!-- translocation2source -->
<g id="node28" class="node">
<title>translocation2source</title>
<polygon fill="none" stroke="black" points="2685.28,-232.8 2553.59,-232.8 2553.59,-196.8 2685.28,-196.8 2685.28,-232.8"/>
<text text-anchor="middle" x="2619.43" y="-210.6" font-family="Times,serif" font-size="14.00">translocation2source</text>
</g>
<!-- translocation2source&#45;&gt;source -->
<g id="edge26" class="edge">
<title>translocation2source&#45;&gt;source</title>
<path fill="none" stroke="blue" d="M2583.67,-232.92C2506.75,-269.73 2326.3,-356.1 2248.82,-393.18"/>
<polygon fill="blue" stroke="blue" points="2246.97,-390.19 2239.46,-397.66 2249.99,-396.5 2246.97,-390.19"/>
<text text-anchor="middle" x="2432.88" y="-309" font-family="Times,serif" font-size="14.00">in</text>
</g>
<!-- rulershiplabel -->
<g id="node29" class="node">
<title>rulershiplabel</title>
<polygon fill="none" stroke="black" points="160.91,-232.8 67.96,-232.8 67.96,-196.8 160.91,-196.8 160.91,-232.8"/>
<text text-anchor="middle" x="114.43" y="-210.6" font-family="Times,serif" font-size="14.00">rulershiplabel</text>
</g>
<!-- rulershiplabel&#45;&gt;label -->
<g id="edge32" class="edge">
<title>rulershiplabel&#45;&gt;label</title>
<path fill="none" stroke="purple" d="M125.24,-233.06C141.74,-257.68 175.73,-302.03 217.54,-321.6 405.67,-409.64 945.73,-353.04 1149.43,-393.6 1154.3,-394.57 1159.35,-395.85 1164.3,-397.28"/>
<polygon fill="purple" stroke="purple" points="1163.65,-400.74 1174.23,-400.35 1165.72,-394.05 1163.65,-400.74"/>
<text text-anchor="middle" x="223.88" y="-309" font-family="Times,serif" font-size="14.00">in</text>
</g>
<!-- rulershiplabel&#45;&gt;timespan -->
<g id="edge44" class="edge">
<title>rulershiplabel&#45;&gt;timespan</title>
<path fill="none" stroke="cyan" d="M110.66,-232.89C99.78,-287.22 74.94,-456.02 170.43,-518.4 247.92,-569.02 530.06,-595.67 639.06,-604.25"/>
<polygon fill="cyan" stroke="cyan" points="639.11,-607.77 649.35,-605.05 639.65,-600.79 639.11,-607.77"/>
<text text-anchor="middle" x="115.88" y="-407.4" font-family="Times,serif" font-size="14.00">in</text>
</g>
<!-- rulershiplabel&#45;&gt;rulership -->
<g id="edge68" class="edge">
<title>rulershiplabel&#45;&gt;rulership</title>
<path fill="none" stroke="pink" d="M116.69,-232.92C119.96,-254.38 127.13,-291.95 140.54,-321.6 151.07,-344.88 167.85,-368.51 181.27,-385.56"/>
<polygon fill="pink" stroke="pink" points="178.56,-387.77 187.56,-393.37 184.02,-383.38 178.56,-387.77"/>
<text text-anchor="middle" x="146.88" y="-309" font-family="Times,serif" font-size="14.00">in</text>
</g>
<!-- rulerlabel -->
<g id="node30" class="node">
<title>rulerlabel</title>
<polygon fill="none" stroke="black" points="1135.07,-232.8 1065.8,-232.8 1065.8,-196.8 1135.07,-196.8 1135.07,-232.8"/>
<text text-anchor="middle" x="1100.43" y="-210.6" font-family="Times,serif" font-size="14.00">rulerlabel</text>
</g>
<!-- rulerlabel&#45;&gt;label -->
<g id="edge34" class="edge">
<title>rulerlabel&#45;&gt;label</title>
<path fill="none" stroke="purple" d="M1120.91,-233.07C1139.13,-249.59 1165.06,-276.18 1179.43,-304.8 1191.95,-329.72 1197.35,-361.38 1199.68,-383.55"/>
<polygon fill="purple" stroke="purple" points="1196.2,-383.95 1200.59,-393.59 1203.17,-383.32 1196.2,-383.95"/>
<text text-anchor="middle" x="1190.88" y="-309" font-family="Times,serif" font-size="14.00">in</text>
</g>
<!-- rulerlabel&#45;&gt;timespan -->
<g id="edge45" class="edge">
<title>rulerlabel&#45;&gt;timespan</title>
<path fill="none" stroke="cyan" d="M1107.54,-232.89C1115.33,-253.99 1125.69,-290.88 1117.43,-321.6 1091.2,-419.22 1083.4,-456.58 1003.43,-518.4 919.83,-583.03 792.04,-600.74 725.73,-605.58"/>
<polygon fill="cyan" stroke="cyan" points="725.37,-602.1 715.63,-606.26 725.84,-609.09 725.37,-602.1"/>
<text text-anchor="middle" x="1100.88" y="-407.4" font-family="Times,serif" font-size="14.00">in</text>
</g>
<!-- rulerlabel&#45;&gt;ruler -->
<g id="edge64" class="edge">
<title>rulerlabel&#45;&gt;ruler</title>
<path fill="none" stroke="lime" d="M1135.42,-229.57C1138.46,-230.69 1141.49,-231.78 1144.43,-232.8 1246.82,-268.35 1276.5,-265.29 1377.43,-304.8 1444.23,-330.95 1518.92,-368.55 1562.12,-391.18"/>
<polygon fill="lime" stroke="lime" points="1560.62,-394.35 1571.1,-395.9 1563.88,-388.15 1560.62,-394.35"/>
<text text-anchor="middle" x="1419.88" y="-309" font-family="Times,serif" font-size="14.00">in</text>
</g>
<!-- locationlabel -->
<g id="node31" class="node">
<title>locationlabel</title>
<polygon fill="none" stroke="black" points="598.75,-232.8 510.12,-232.8 510.12,-196.8 598.75,-196.8 598.75,-232.8"/>
<text text-anchor="middle" x="554.43" y="-210.6" font-family="Times,serif" font-size="14.00">locationlabel</text>
</g>
<!-- locationlabel&#45;&gt;label -->
<g id="edge36" class="edge">
<title>locationlabel&#45;&gt;label</title>
<path fill="none" stroke="purple" d="M598.59,-226.28C652.39,-240.04 745.17,-266.95 818.43,-304.8 829.71,-310.63 830,-316.32 841.54,-321.6 969.33,-380.08 1014.1,-355.73 1149.43,-393.6 1154.39,-394.99 1159.59,-396.55 1164.69,-398.15"/>
<polygon fill="purple" stroke="purple" points="1163.72,-401.52 1174.31,-401.24 1165.86,-394.85 1163.72,-401.52"/>
<text text-anchor="middle" x="846.88" y="-309" font-family="Times,serif" font-size="14.00">in</text>
</g>
<!-- locationlabel&#45;&gt;timespan -->
<g id="edge49" class="edge">
<title>locationlabel&#45;&gt;timespan</title>
<path fill="none" stroke="cyan" d="M510.19,-232.7C431.42,-265.45 279.94,-342.11 333.54,-429.6 401.36,-540.27 562.08,-584.76 639.41,-600.23"/>
<polygon fill="cyan" stroke="cyan" points="638.82,-603.68 649.31,-602.14 640.15,-596.81 638.82,-603.68"/>
<text text-anchor="middle" x="339.88" y="-407.4" font-family="Times,serif" font-size="14.00">in</text>
</g>
<!-- shiplabel -->
<g id="node32" class="node">
<title>shiplabel</title>
<polygon fill="none" stroke="black" points="715.48,-232.8 649.39,-232.8 649.39,-196.8 715.48,-196.8 715.48,-232.8"/>
<text text-anchor="middle" x="682.43" y="-210.6" font-family="Times,serif" font-size="14.00">shiplabel</text>
</g>
<!-- shiplabel&#45;&gt;label -->
<g id="edge38" class="edge">
<title>shiplabel&#45;&gt;label</title>
<path fill="none" stroke="purple" d="M714.87,-233C768.15,-261.19 870.05,-314.77 887.54,-321.6 999.99,-365.51 1033.83,-358.83 1149.43,-393.6 1154.37,-395.08 1159.54,-396.7 1164.64,-398.33"/>
<polygon fill="purple" stroke="purple" points="1163.66,-401.69 1174.25,-401.44 1165.82,-395.03 1163.66,-401.69"/>
<text text-anchor="middle" x="892.88" y="-309" font-family="Times,serif" font-size="14.00">in</text>
</g>
<!-- shiplabel&#45;&gt;timespan -->
<g id="edge51" class="edge">
<title>shiplabel&#45;&gt;timespan</title>
<path fill="none" stroke="cyan" d="M703.03,-232.86C736.19,-261.82 800.14,-324.25 824.43,-393.6 851.45,-470.72 766.89,-547.07 716.74,-584.17"/>
<polygon fill="cyan" stroke="cyan" points="714.46,-581.51 708.42,-590.21 718.57,-587.17 714.46,-581.51"/>
<text text-anchor="middle" x="834.88" y="-407.4" font-family="Times,serif" font-size="14.00">in</text>
</g>
<!-- location -->
<g id="node33" class="node">
<title>location</title>
<polygon fill="none" stroke="black" points="415.03,-429.6 353.83,-429.6 353.83,-393.6 415.03,-393.6 415.03,-429.6"/>
<text text-anchor="middle" x="384.43" y="-407.4" font-family="Times,serif" font-size="14.00">location</text>
</g>
<!-- location&#45;&gt;timespan -->
<g id="edge47" class="edge">
<title>location&#45;&gt;timespan</title>
<path fill="none" stroke="cyan" d="M410.62,-429.72C464.49,-464.94 587.75,-545.5 648,-584.89"/>
<polygon fill="cyan" stroke="cyan" points="646.13,-587.85 656.41,-590.39 649.96,-581.99 646.13,-587.85"/>
<text text-anchor="middle" x="546.88" y="-505.8" font-family="Times,serif" font-size="14.00">in</text>
</g>
<!-- location2type -->
<g id="node34" class="node">
<title>location2type</title>
<polygon fill="none" stroke="black" points="525.64,-429.6 433.23,-429.6 433.23,-393.6 525.64,-393.6 525.64,-429.6"/>
<text text-anchor="middle" x="479.43" y="-407.4" font-family="Times,serif" font-size="14.00">location2type</text>
</g>
<!-- location2type&#45;&gt;timespan -->
<g id="edge48" class="edge">
<title>location2type&#45;&gt;timespan</title>
<path fill="none" stroke="cyan" d="M497.45,-429.89C533.71,-464.69 615.6,-543.27 657.18,-583.17"/>
<polygon fill="cyan" stroke="cyan" points="654.82,-585.75 664.46,-590.15 659.67,-580.7 654.82,-585.75"/>
<text text-anchor="middle" x="591.88" y="-505.8" font-family="Times,serif" font-size="14.00">in</text>
</g>
<!-- locationpartof -->
<g id="node35" class="node">
<title>locationpartof</title>
<polygon fill="none" stroke="black" points="637.46,-429.6 543.4,-429.6 543.4,-393.6 637.46,-393.6 637.46,-429.6"/>
<text text-anchor="middle" x="590.43" y="-407.4" font-family="Times,serif" font-size="14.00">locationpartof</text>
</g>
<!-- locationpartof&#45;&gt;timespan -->
<g id="edge50" class="edge">
<title>locationpartof&#45;&gt;timespan</title>
<path fill="none" stroke="cyan" d="M598.6,-429.89C614.73,-464.04 650.77,-540.35 669.92,-580.9"/>
<polygon fill="cyan" stroke="cyan" points="666.85,-582.6 674.29,-590.15 673.18,-579.61 666.85,-582.6"/>
<text text-anchor="middle" x="643.88" y="-505.8" font-family="Times,serif" font-size="14.00">in</text>
</g>
<!-- event -->
<g id="node36" class="node">
<title>event</title>
<polygon fill="none" stroke="black" points="709.43,-429.6 655.43,-429.6 655.43,-393.6 709.43,-393.6 709.43,-429.6"/>
<text text-anchor="middle" x="682.43" y="-407.4" font-family="Times,serif" font-size="14.00">event</text>
</g>
<!-- event&#45;&gt;timespan -->
<g id="edge53" class="edge">
<title>event&#45;&gt;timespan</title>
<path fill="none" stroke="cyan" d="M682.43,-429.89C682.43,-463.82 682.43,-539.38 682.43,-580.12"/>
<polygon fill="cyan" stroke="cyan" points="678.93,-580.15 682.43,-590.15 685.93,-580.15 678.93,-580.15"/>
<text text-anchor="middle" x="687.88" y="-505.8" font-family="Times,serif" font-size="14.00">in</text>
</g>
<!-- translocation -->
<g id="node37" class="node">
<title>translocation</title>
<polygon fill="none" stroke="black" points="815.75,-429.6 727.12,-429.6 727.12,-393.6 815.75,-393.6 815.75,-429.6"/>
<text text-anchor="middle" x="771.43" y="-407.4" font-family="Times,serif" font-size="14.00">translocation</text>
</g>
<!-- translocation&#45;&gt;timespan -->
<g id="edge54" class="edge">
<title>translocation&#45;&gt;timespan</title>
<path fill="none" stroke="cyan" d="M763.54,-429.89C747.93,-464.04 713.07,-540.35 694.54,-580.9"/>
<polygon fill="cyan" stroke="cyan" points="691.29,-579.6 690.31,-590.15 697.65,-582.51 691.29,-579.6"/>
<text text-anchor="middle" x="734.88" y="-505.8" font-family="Times,serif" font-size="14.00">in</text>
</g>
</g>
</svg>
